<svg width="171" height="43" viewBox="0 0 171 43" fill="none" xmlns="http://www.w3.org/2000/svg">
<path d="M92.1708 40.6582L92.1741 41.3581L92.1708 40.6582ZM1.91329 20.1692C1.54879 20.298 1.35777 20.698 1.48661 21.0625L3.58627 27.0023C3.71511 27.3668 4.11505 27.5578 4.47954 27.429C4.84404 27.3001 5.03507 26.9002 4.90623 26.5357L3.03987 21.2558L8.31971 19.3895C8.6842 19.2606 8.87523 18.8607 8.74639 18.4962C8.61753 18.1317 8.2176 17.9407 7.85311 18.0695L1.91329 20.1692ZM169.901 1C169.352 0.565458 169.352 0.565423 169.352 0.565393C169.352 0.565396 169.352 0.565373 169.352 0.565377C169.352 0.565381 169.352 0.565423 169.352 0.565496C169.352 0.565638 169.352 0.565919 169.351 0.566329C169.351 0.567151 169.35 0.568506 169.348 0.570383C169.345 0.574145 169.34 0.580011 169.334 0.587953C169.321 0.603839 169.302 0.628025 169.276 0.660266C169.224 0.724745 169.145 0.821428 169.04 0.948302C168.829 1.20206 168.514 1.57656 168.097 2.05573C167.263 3.0141 166.022 4.3909 164.401 6.05755L165.404 7.03378C167.045 5.34691 168.304 3.95088 169.153 2.97481C169.578 2.48675 169.901 2.10362 170.118 1.84154C170.226 1.71051 170.308 1.60973 170.364 1.54123C170.392 1.50698 170.413 1.48079 170.427 1.46293C170.434 1.454 170.44 1.44714 170.443 1.4424C170.445 1.44003 170.447 1.43819 170.448 1.43688C170.448 1.43623 170.449 1.4357 170.449 1.43531C170.449 1.43512 170.449 1.43496 170.449 1.43483C170.449 1.43477 170.45 1.43469 170.45 1.43466C170.45 1.4346 170.45 1.43455 169.901 1ZM153.382 16.0985C149.859 18.9524 145.805 21.9272 141.273 24.7693L142.017 25.9553C146.603 23.0796 150.702 20.071 154.263 17.1864L153.382 16.0985ZM128.166 31.8211C123.788 33.7967 119.121 35.5315 114.193 36.8862L114.564 38.2361C119.569 36.8604 124.305 35.0998 128.742 33.0972L128.166 31.8211ZM99.5931 39.5862C97.1648 39.818 94.6887 39.9462 92.1675 39.9582L92.1741 41.3581C94.7385 41.346 97.2567 41.2156 99.7261 40.9799L99.5931 39.5862ZM92.1675 39.9582C89.579 39.9704 87.0079 39.9236 84.4597 39.8239L84.4049 41.2228C86.9727 41.3233 89.5644 41.3705 92.1741 41.3581L92.1675 39.9582ZM69.0942 38.5958C63.8352 37.9684 58.7393 37.1547 53.864 36.2192L53.6001 37.5941C58.5051 38.5353 63.6338 39.3543 68.9283 39.986L69.0942 38.5958ZM38.8151 32.8182C33.3949 31.4103 28.4205 29.9217 24.0054 28.4797L23.5707 29.8105C28.0104 31.2606 33.0125 32.7574 38.4632 34.1732L38.8151 32.8182ZM9.50608 23.2246C7.23718 22.3131 5.46986 21.5549 4.27115 21.0253C3.67181 20.7606 3.21465 20.5529 2.90803 20.4118C2.75474 20.3412 2.63908 20.2873 2.5621 20.2512C2.52361 20.2332 2.4948 20.2196 2.47579 20.2106C2.46628 20.2061 2.45924 20.2027 2.45464 20.2005C2.45235 20.1994 2.45068 20.1986 2.44962 20.1981C2.44908 20.1979 2.44872 20.1977 2.4485 20.1976C2.44838 20.1976 2.44832 20.1975 2.44829 20.1975C2.44827 20.1975 2.44827 20.1975 2.44826 20.1975C2.44827 20.1975 2.4483 20.1975 2.14659 20.8292C1.84488 21.4608 1.84492 21.4608 1.84497 21.4608C1.845 21.4609 1.84508 21.4609 1.84514 21.4609C1.84526 21.461 1.84541 21.4611 1.84561 21.4612C1.84603 21.4613 1.84658 21.4616 1.84728 21.4619C1.84871 21.4626 1.85076 21.4636 1.85341 21.4649C1.85874 21.4674 1.86653 21.4711 1.87678 21.4759C1.89727 21.4856 1.92758 21.5 1.96757 21.5187C2.04757 21.5562 2.16631 21.6116 2.32274 21.6836C2.6356 21.8276 3.09929 22.0382 3.70538 22.3059C4.91755 22.8415 6.69952 23.6058 8.9842 24.5237L9.50608 23.2246ZM92.1708 40.6582L92.1774 42.0581L92.1708 40.6582ZM1.68 19.5092C0.950998 19.7669 0.568937 20.5668 0.82663 21.2957L5.02594 33.1754C5.28364 33.9044 6.0835 34.2864 6.81249 34.0288C7.5415 33.7711 7.92356 32.9712 7.66586 32.2422L3.93314 21.6825L14.4928 17.9498C15.2218 17.6921 15.6039 16.8922 15.3462 16.1633C15.0885 15.4343 14.2886 15.0522 13.5596 15.3099L1.68 19.5092ZM169.901 1C168.803 0.130916 168.803 0.130832 168.803 0.130759C168.803 0.130744 168.803 0.130678 168.803 0.130652C168.804 0.130594 168.804 0.130575 168.804 0.130586C168.804 0.130609 168.803 0.130767 168.803 0.131055C168.803 0.13163 168.802 0.13274 168.801 0.134375C168.798 0.137642 168.794 0.143016 168.788 0.150464C168.776 0.165359 168.757 0.18855 168.732 0.219782C168.681 0.282249 168.604 0.376886 168.501 0.501678C168.294 0.751278 167.982 1.12147 167.569 1.59618C166.743 2.54571 165.511 3.9129 163.899 5.56943L165.906 7.52191C167.557 5.82492 168.824 4.41927 169.681 3.43435C170.11 2.94184 170.436 2.55439 170.657 2.28817C170.767 2.15505 170.851 2.05223 170.908 1.98171C170.937 1.94645 170.958 1.91927 170.973 1.90041C170.981 1.89099 170.987 1.88365 170.991 1.87841C170.993 1.8758 170.995 1.87371 170.996 1.87216C170.997 1.87138 170.997 1.87073 170.998 1.87022C170.998 1.86997 170.998 1.86975 170.998 1.86955C170.998 1.86946 170.998 1.86935 170.998 1.8693C170.998 1.86919 170.998 1.86909 169.901 1ZM152.941 15.5546C149.437 18.3931 145.406 21.351 140.901 24.1762L142.389 26.5484C147.001 23.6558 151.124 20.6303 154.704 17.7304L152.941 15.5546ZM127.878 31.1831C123.53 33.1452 118.898 34.8671 114.008 36.2112L114.75 38.9111C119.793 37.5248 124.563 35.7513 129.03 33.7352L127.878 31.1831ZM99.5266 38.8894C97.1188 39.1192 94.6638 39.2463 92.1641 39.2582L92.1774 42.0581C94.7634 42.0459 97.3027 41.9144 99.7926 41.6767L99.5266 38.8894ZM92.1641 39.2582C89.5863 39.2704 87.0254 39.2237 84.487 39.1244L84.3776 41.9223C86.9552 42.0231 89.557 42.0706 92.1774 42.0581L92.1641 39.2582ZM69.1771 37.9007C63.936 37.2754 58.8564 36.4644 53.9959 35.5318L53.4682 38.2816C58.388 39.2256 63.5331 40.0472 68.8454 40.681L69.1771 37.9007ZM38.9911 32.1407C33.5861 30.7367 28.6256 29.2523 24.2227 27.8143L23.3534 30.4759C27.8054 31.93 32.8212 33.431 38.2872 34.8507L38.9911 32.1407ZM9.76702 22.575C7.506 21.6667 5.74601 20.9117 4.55404 20.3851C3.95807 20.1218 3.50417 19.9156 3.2007 19.7759C3.04896 19.7061 2.93483 19.6529 2.85937 19.6175C2.82163 19.5998 2.79357 19.5865 2.7753 19.5779C2.76616 19.5736 2.75948 19.5704 2.75525 19.5684C2.75315 19.5674 2.75165 19.5667 2.75078 19.5662C2.75034 19.566 2.75006 19.5659 2.74994 19.5658C2.74986 19.5658 2.74985 19.5658 2.74986 19.5658C2.74986 19.5658 2.74991 19.5658 2.74991 19.5658C2.74995 19.5658 2.75001 19.5659 2.14659 20.8292C1.54317 22.0924 1.54324 22.0925 1.54333 22.0925C1.54338 22.0925 1.54347 22.0926 1.54356 22.0926C1.54373 22.0927 1.54393 22.0928 1.54418 22.0929C1.54467 22.0932 1.54532 22.0935 1.54612 22.0939C1.54773 22.0946 1.54995 22.0957 1.5528 22.097C1.55848 22.0997 1.56665 22.1036 1.57726 22.1086C1.5985 22.1187 1.62956 22.1333 1.6703 22.1525C1.75181 22.1907 1.87208 22.2467 2.03008 22.3195C2.3461 22.4649 2.81302 22.677 3.42249 22.9462C4.6414 23.4847 6.43069 24.2522 8.72326 25.1732L9.76702 22.575Z" fill="url(#paint0_linear_126_294)" fill-opacity="0.4"/>
<defs>
<linearGradient id="paint0_linear_126_294" x1="-3.99854" y1="80" x2="238.001" y2="-50" gradientUnits="userSpaceOnUse">
<stop stop-color="white"/>
<stop offset="1" stop-color="white" stop-opacity="0"/>
</linearGradient>
</defs>
</svg>
