<svg width="47" height="46" viewBox="0 0 47 46" fill="none" xmlns="http://www.w3.org/2000/svg">
<g id="Group">
<g id="Ellipse 37" filter="url(#filter0_d_126_43)">
<ellipse cx="23.6576" cy="20.5481" rx="20.6576" ry="20.5481" fill="white"/>
<path d="M43.5098 20.5481C43.5098 31.4476 34.6257 40.2908 23.6576 40.2908C12.6895 40.2908 3.80541 31.4476 3.80541 20.5481C3.80541 9.64853 12.6895 0.805406 23.6576 0.805406C34.6257 0.805406 43.5098 9.64853 43.5098 20.5481Z" stroke="black" stroke-opacity="0.13" stroke-width="1.61081"/>
</g>
<g id="Group_2">
<g id="Group_3">
<path id="Vector" d="M22.968 21.169C21.6589 21.169 17.8062 21.169 17.8062 21.169C17.3972 21.169 17.0625 21.5019 17.0625 21.9087V27.4606C17.0625 27.8674 17.3972 28.2002 17.8062 28.2002C17.8062 28.2002 21.7395 28.2002 23.0548 28.2002C23.2297 28.2002 23.2297 28.0133 23.2297 28.0133V21.4204C23.2297 21.4204 23.2296 21.169 22.968 21.169Z" fill="#3C3C3C"/>
<path id="Vector_2" d="M29.9105 21.169C29.9105 21.169 26.043 21.169 24.7539 21.169C24.4398 21.169 24.4869 21.4943 24.4869 21.4943V28.0192C24.4869 28.0192 24.4843 28.2 24.6732 28.2C25.9825 28.2 29.9104 28.2 29.9104 28.2C30.3194 28.2 30.654 27.8672 30.654 27.4603V21.9086C30.6541 21.5018 30.3195 21.169 29.9105 21.169Z" fill="#3C3C3C"/>
</g>
<g id="Group_4">
<path id="Vector_3" d="M23.2218 16.8003C23.2218 16.8003 23.2218 16.5496 22.9727 16.5496C21.4817 16.5496 16.9585 16.5496 16.9585 16.5496C16.5495 16.5496 16.2148 16.8825 16.2148 17.2893V19.5982C16.2148 20.0051 16.5495 20.3379 16.9585 20.3379C16.9585 20.3379 21.502 20.3379 22.9931 20.3379C23.2218 20.3379 23.2218 20.1407 23.2218 20.1407V16.8003Z" fill="#3C3C3C"/>
<path id="Vector_4" d="M30.7398 16.5496C30.7398 16.5496 26.2147 16.5496 24.7063 16.5496C24.4766 16.5496 24.4766 16.7674 24.4766 16.7674V20.1452C24.4766 20.1452 24.4766 20.3379 24.7559 20.3379C26.2518 20.3379 30.7398 20.3379 30.7398 20.3379C31.1488 20.3379 31.4834 20.0051 31.4834 19.5982V17.2893C31.4834 16.8825 31.1488 16.5496 30.7398 16.5496Z" fill="#3C3C3C"/>
</g>
<g id="Group_5">
<path id="Vector_5" d="M20.6937 16.0028C20.3534 16.0028 20.0426 15.9759 19.7701 15.9229C19.0779 15.7884 18.6022 15.5266 18.3157 15.1227C18.059 14.7606 17.9804 14.3143 18.0821 13.796C18.2603 12.8892 18.8725 12.3899 19.8059 12.3899C20.0034 12.3899 20.2204 12.4126 20.4507 12.4574C21.0367 12.5712 21.7862 12.9055 22.4557 13.3514C23.5916 14.1081 23.6477 14.5785 23.5912 14.8666C23.508 15.2898 23.1103 15.5923 22.3752 15.7912C21.8786 15.9256 21.2657 16.0028 20.6937 16.0028ZM19.8059 13.5754C19.4445 13.5754 19.3202 13.6759 19.252 14.0233C19.1962 14.3074 19.2666 14.4066 19.2897 14.4392C19.3863 14.5756 19.6381 14.6893 19.9987 14.7593C20.1932 14.7971 20.4336 14.8171 20.6936 14.8171C21.2653 14.8171 21.769 14.7309 22.1033 14.6367C22.1276 14.6298 22.1654 14.6012 22.1249 14.5772C21.6879 14.2232 20.8885 13.7504 20.2222 13.6209C20.067 13.5908 19.9269 13.5754 19.8059 13.5754Z" fill="#3C3C3C"/>
</g>
<g id="Group_6">
<path id="Vector_6" d="M27.0293 16.0027C27.0293 16.0027 27.0293 16.0027 27.0292 16.0027C26.4572 16.0027 25.8443 15.9256 25.3477 15.7912C24.6126 15.5923 24.2149 15.2898 24.1318 14.8666C24.0752 14.5785 24.1313 14.1081 25.2673 13.3514C25.9367 12.9055 26.6862 12.5712 27.2723 12.4574C27.5026 12.4126 27.7196 12.3899 27.9169 12.3899C28.8505 12.3899 29.4627 12.8893 29.6407 13.7961C29.7425 14.3143 29.664 14.7606 29.4072 15.1227C29.1207 15.5267 28.645 15.7884 27.9527 15.9229C27.6803 15.9758 27.3695 16.0027 27.0293 16.0027ZM25.6076 14.5698C25.5688 14.5922 25.5876 14.6275 25.6077 14.6333C25.9418 14.7288 26.4508 14.8171 27.0292 14.8171C27.2893 14.8171 27.5296 14.7971 27.7242 14.7593C28.0847 14.6892 28.3366 14.5756 28.4332 14.4392C28.4564 14.4066 28.5268 14.3074 28.4709 14.0233C28.4027 13.6759 28.2784 13.5754 27.9169 13.5754C27.796 13.5754 27.656 13.5907 27.5007 13.6209C26.8343 13.7504 26.0445 14.2157 25.6076 14.5698Z" fill="#3C3C3C"/>
</g>
</g>
</g>
<defs>
<filter id="filter0_d_126_43" x="0.852251" y="0" width="45.6119" height="45.3917" filterUnits="userSpaceOnUse" color-interpolation-filters="sRGB">
<feFlood flood-opacity="0" result="BackgroundImageFix"/>
<feColorMatrix in="SourceAlpha" type="matrix" values="0 0 0 0 0 0 0 0 0 0 0 0 0 0 0 0 0 0 127 0" result="hardAlpha"/>
<feOffset dy="2.14775"/>
<feGaussianBlur stdDeviation="1.07387"/>
<feComposite in2="hardAlpha" operator="out"/>
<feColorMatrix type="matrix" values="0 0 0 0 0 0 0 0 0 0 0 0 0 0 0 0 0 0 0.25 0"/>
<feBlend mode="normal" in2="BackgroundImageFix" result="effect1_dropShadow_126_43"/>
<feBlend mode="normal" in="SourceGraphic" in2="effect1_dropShadow_126_43" result="shape"/>
</filter>
</defs>
</svg>
