<svg width="46" height="46" viewBox="0 0 46 46" fill="none" xmlns="http://www.w3.org/2000/svg">
<path d="M44.7126 22.662C44.7126 34.7296 34.9297 44.5123 22.8618 44.5123C10.7939 44.5123 1.01093 34.7296 1.01093 22.662C1.01093 10.5944 10.7939 0.811707 22.8618 0.811707C34.9297 0.811707 44.7126 10.5944 44.7126 22.662Z" stroke="#3C3C3C" stroke-width="1.62341"/>
<path d="M44.7126 22.662C44.7126 34.7296 34.9297 44.5123 22.8618 44.5123C10.7939 44.5123 1.01093 34.7296 1.01093 22.662C1.01093 10.5944 10.7939 0.811707 22.8618 0.811707C34.9297 0.811707 44.7126 10.5944 44.7126 22.662Z" stroke="url(#paint0_linear_126_62)" stroke-opacity="0.2" stroke-width="1.62341"/>
<ellipse cx="22.9424" cy="22.6806" rx="18.4463" ry="18.4458" fill="#3C3C3C"/>
<ellipse cx="22.9424" cy="22.6806" rx="18.4463" ry="18.4458" fill="url(#paint1_linear_126_62)" fill-opacity="0.1"/>
<path d="M17.4609 19.5845C17.4609 16.356 20.0759 13.741 23.3045 13.741C26.5331 13.741 29.1481 16.356 29.1481 19.5845V24.2594C29.1481 27.488 26.5331 30.103 23.3045 30.103C20.0759 30.103 17.4609 27.488 17.4609 24.2594V19.5845ZM23.3045 16.0784C21.3688 16.0784 19.7984 17.6488 19.7984 19.5845V24.2594C19.7984 26.1951 21.3688 27.7655 23.3045 27.7655C25.2402 27.7655 26.8106 26.1951 26.8106 24.2594V19.5845C26.8106 17.6488 25.2402 16.0784 23.3045 16.0784Z" fill="white"/>
<defs>
<linearGradient id="paint0_linear_126_62" x1="45.5243" y1="24.7493" x2="0.199219" y2="24.7493" gradientUnits="userSpaceOnUse">
<stop stop-color="white" stop-opacity="0"/>
<stop offset="0.453125" stop-color="white"/>
<stop offset="1" stop-color="white" stop-opacity="0"/>
</linearGradient>
<linearGradient id="paint1_linear_126_62" x1="41.3886" y1="24.3795" x2="4.49609" y2="24.3795" gradientUnits="userSpaceOnUse">
<stop stop-color="white" stop-opacity="0"/>
<stop offset="0.453125" stop-color="white"/>
<stop offset="1" stop-color="white" stop-opacity="0"/>
</linearGradient>
</defs>
</svg>
