<svg width="46" height="46" viewBox="0 0 46 46" fill="none" xmlns="http://www.w3.org/2000/svg">
<path d="M44.9118 22.662C44.9118 34.7296 35.1289 44.5123 23.061 44.5123C10.9931 44.5123 1.21014 34.7296 1.21014 22.662C1.21014 10.5944 10.9931 0.811707 23.061 0.811707C35.1289 0.811707 44.9118 10.5944 44.9118 22.662Z" stroke="#3C3C3C" stroke-width="1.62341"/>
<path d="M44.9118 22.662C44.9118 34.7296 35.1289 44.5123 23.061 44.5123C10.9931 44.5123 1.21014 34.7296 1.21014 22.662C1.21014 10.5944 10.9931 0.811707 23.061 0.811707C35.1289 0.811707 44.9118 10.5944 44.9118 22.662Z" stroke="url(#paint0_linear_126_74)" stroke-opacity="0.2" stroke-width="1.62341"/>
<ellipse cx="23.1338" cy="22.6805" rx="18.4463" ry="18.4458" fill="#3C3C3C"/>
<ellipse cx="23.1338" cy="22.6805" rx="18.4463" ry="18.4458" fill="url(#paint1_linear_126_74)" fill-opacity="0.1"/>
<path d="M13.793 30.7621C13.793 31.0236 13.8969 31.2745 14.0818 31.4594C14.2667 31.6443 14.5175 31.7482 14.7791 31.7482H31.2141C31.4756 31.7482 31.7265 31.6443 31.9114 31.4594C32.0963 31.2745 32.2002 31.0236 32.2002 30.7621V19.2576H13.793V30.7621ZM26.941 20.7367C26.941 20.6931 26.9583 20.6513 26.9891 20.6205C27.02 20.5897 27.0618 20.5724 27.1054 20.5724H28.7489C28.7924 20.5724 28.8342 20.5897 28.8651 20.6205C28.8959 20.6513 28.9132 20.6931 28.9132 20.7367V22.3802C28.9132 22.4238 28.8959 22.4656 28.8651 22.4964C28.8342 22.5273 28.7924 22.5446 28.7489 22.5446H27.1054C27.0618 22.5446 27.02 22.5273 26.9891 22.4964C26.9583 22.4656 26.941 22.4238 26.941 22.3802V20.7367ZM26.941 24.0237C26.941 23.9801 26.9583 23.9383 26.9891 23.9075C27.02 23.8767 27.0618 23.8594 27.1054 23.8594H28.7489C28.7924 23.8594 28.8342 23.8767 28.8651 23.9075C28.8959 23.9383 28.9132 23.9801 28.9132 24.0237V25.6672C28.9132 25.7108 28.8959 25.7526 28.8651 25.7834C28.8342 25.8143 28.7924 25.8316 28.7489 25.8316H27.1054C27.0618 25.8316 27.02 25.8143 26.9891 25.7834C26.9583 25.7526 26.941 25.7108 26.941 25.6672V24.0237ZM23.654 20.7367C23.654 20.6931 23.6713 20.6513 23.7021 20.6205C23.733 20.5897 23.7748 20.5724 23.8183 20.5724H25.4618C25.5054 20.5724 25.5472 20.5897 25.5781 20.6205C25.6089 20.6513 25.6262 20.6931 25.6262 20.7367V22.3802C25.6262 22.4238 25.6089 22.4656 25.5781 22.4964C25.5472 22.5273 25.5054 22.5446 25.4618 22.5446H23.8183C23.7748 22.5446 23.733 22.5273 23.7021 22.4964C23.6713 22.4656 23.654 22.4238 23.654 22.3802V20.7367ZM23.654 24.0237C23.654 23.9801 23.6713 23.9383 23.7021 23.9075C23.733 23.8767 23.7748 23.8594 23.8183 23.8594H25.4618C25.5054 23.8594 25.5472 23.8767 25.5781 23.9075C25.6089 23.9383 25.6262 23.9801 25.6262 24.0237V25.6672C25.6262 25.7108 25.6089 25.7526 25.5781 25.7834C25.5472 25.8143 25.5054 25.8316 25.4618 25.8316H23.8183C23.7748 25.8316 23.733 25.8143 23.7021 25.7834C23.6713 25.7526 23.654 25.7108 23.654 25.6672V24.0237ZM23.654 27.3107C23.654 27.2672 23.6713 27.2253 23.7021 27.1945C23.733 27.1637 23.7748 27.1464 23.8183 27.1464H25.4618C25.5054 27.1464 25.5472 27.1637 25.5781 27.1945C25.6089 27.2253 25.6262 27.2672 25.6262 27.3107V28.9542C25.6262 28.9978 25.6089 29.0396 25.5781 29.0705C25.5472 29.1013 25.5054 29.1186 25.4618 29.1186H23.8183C23.7748 29.1186 23.733 29.1013 23.7021 29.0705C23.6713 29.0396 23.654 28.9978 23.654 28.9542V27.3107ZM20.367 24.0237C20.367 23.9801 20.3843 23.9383 20.4151 23.9075C20.4459 23.8767 20.4877 23.8594 20.5313 23.8594H22.1748C22.2184 23.8594 22.2602 23.8767 22.2911 23.9075C22.3219 23.9383 22.3392 23.9801 22.3392 24.0237V25.6672C22.3392 25.7108 22.3219 25.7526 22.2911 25.7834C22.2602 25.8143 22.2184 25.8316 22.1748 25.8316H20.5313C20.4877 25.8316 20.4459 25.8143 20.4151 25.7834C20.3843 25.7526 20.367 25.7108 20.367 25.6672V24.0237ZM20.367 27.3107C20.367 27.2672 20.3843 27.2253 20.4151 27.1945C20.4459 27.1637 20.4877 27.1464 20.5313 27.1464H22.1748C22.2184 27.1464 22.2602 27.1637 22.2911 27.1945C22.3219 27.2253 22.3392 27.2672 22.3392 27.3107V28.9542C22.3392 28.9978 22.3219 29.0396 22.2911 29.0705C22.2602 29.1013 22.2184 29.1186 22.1748 29.1186H20.5313C20.4877 29.1186 20.4459 29.1013 20.4151 29.0705C20.3843 29.0396 20.367 28.9978 20.367 28.9542V27.3107ZM17.08 24.0237C17.08 23.9801 17.0973 23.9383 17.1281 23.9075C17.1589 23.8767 17.2007 23.8594 17.2443 23.8594H18.8878C18.9314 23.8594 18.9732 23.8767 19.004 23.9075C19.0349 23.9383 19.0522 23.9801 19.0522 24.0237V25.6672C19.0522 25.7108 19.0349 25.7526 19.004 25.7834C18.9732 25.8143 18.9314 25.8316 18.8878 25.8316H17.2443C17.2007 25.8316 17.1589 25.8143 17.1281 25.7834C17.0973 25.7526 17.08 25.7108 17.08 25.6672V24.0237ZM17.08 27.3107C17.08 27.2672 17.0973 27.2253 17.1281 27.1945C17.1589 27.1637 17.2007 27.1464 17.2443 27.1464H18.8878C18.9314 27.1464 18.9732 27.1637 19.004 27.1945C19.0349 27.2253 19.0522 27.2672 19.0522 27.3107V28.9542C19.0522 28.9978 19.0349 29.0396 19.004 29.0705C18.9732 29.1013 18.9314 29.1186 18.8878 29.1186H17.2443C17.2007 29.1186 17.1589 29.1013 17.1281 29.0705C17.0973 29.0396 17.08 28.9978 17.08 28.9542V27.3107ZM31.2141 14.6558H28.9165V13.341H26.9443V14.6558H19.0489V13.341H17.0767V14.6558H14.7791C14.6501 14.6547 14.5221 14.6791 14.4026 14.7277C14.2831 14.7763 14.1744 14.848 14.0827 14.9388C13.9911 15.0296 13.9183 15.1376 13.8685 15.2567C13.8188 15.3757 13.7931 15.5034 13.793 15.6324V17.9428H32.2002V15.6324C32.2001 15.5034 32.1744 15.3757 32.1246 15.2567C32.0749 15.1376 32.0021 15.0296 31.9105 14.9388C31.8188 14.848 31.7101 14.7763 31.5906 14.7277C31.4711 14.6791 31.3431 14.6547 31.2141 14.6558Z" fill="white"/>
<defs>
<linearGradient id="paint0_linear_126_74" x1="45.7235" y1="24.7493" x2="0.398438" y2="24.7493" gradientUnits="userSpaceOnUse">
<stop stop-color="white" stop-opacity="0"/>
<stop offset="0.453125" stop-color="white"/>
<stop offset="1" stop-color="white" stop-opacity="0"/>
</linearGradient>
<linearGradient id="paint1_linear_126_74" x1="41.58" y1="24.3795" x2="4.6875" y2="24.3795" gradientUnits="userSpaceOnUse">
<stop stop-color="white" stop-opacity="0"/>
<stop offset="0.453125" stop-color="white"/>
<stop offset="1" stop-color="white" stop-opacity="0"/>
</linearGradient>
</defs>
</svg>
