<svg width="46" height="46" viewBox="0 0 46 46" fill="none" xmlns="http://www.w3.org/2000/svg">
<path d="M44.7126 23.062C44.7126 35.1296 34.9297 44.9123 22.8618 44.9123C10.7939 44.9123 1.01093 35.1296 1.01093 23.062C1.01093 10.9944 10.7939 1.21171 22.8618 1.21171C34.9297 1.21171 44.7126 10.9944 44.7126 23.062Z" stroke="#3C3C3C" stroke-width="1.62341"/>
<path d="M44.7126 23.062C44.7126 35.1296 34.9297 44.9123 22.8618 44.9123C10.7939 44.9123 1.01093 35.1296 1.01093 23.062C1.01093 10.9944 10.7939 1.21171 22.8618 1.21171C34.9297 1.21171 44.7126 10.9944 44.7126 23.062Z" stroke="url(#paint0_linear_126_67)" stroke-opacity="0.2" stroke-width="1.62341"/>
<ellipse cx="22.9424" cy="23.4311" rx="18.4463" ry="18.4458" fill="#3C3C3C"/>
<ellipse cx="22.9424" cy="23.4311" rx="18.4463" ry="18.4458" fill="url(#paint1_linear_126_67)" fill-opacity="0.1"/>
<g clip-path="url(#clip0_126_67)">
<path fill-rule="evenodd" clip-rule="evenodd" d="M22.65 12.9715C23.7351 12.9716 24.7903 13.3268 25.6545 13.9829C26.5187 14.6391 27.1444 15.56 27.436 16.6052L27.4934 16.8314L29.5575 16.316C29.7084 16.2784 29.8655 16.2732 30.0185 16.3005C30.1716 16.3279 30.3171 16.3873 30.4456 16.4749C30.5741 16.5624 30.6826 16.6761 30.7641 16.8085C30.8456 16.9409 30.8982 17.089 30.9185 17.2432L30.9284 17.3866V19.3845C31.5507 19.9811 32.0607 20.6848 32.434 21.4618L32.5863 21.8018H33.136C33.4063 21.8018 33.6673 21.9011 33.8693 22.0807C34.0713 22.2604 34.2004 22.5079 34.232 22.7764L34.2398 22.9056V26.2169C34.2398 26.3986 34.195 26.5775 34.1093 26.7377C34.0236 26.8979 33.8997 27.0345 33.7486 27.1353L33.6294 27.2037L32.3402 27.8494C31.8124 28.8705 31.0479 29.7505 30.1105 30.4157L29.8246 30.6078V31.7359C29.8246 32.0062 29.7253 32.2672 29.5457 32.4692C29.366 32.6712 29.1185 32.8003 28.85 32.8319L28.7208 32.8397H25.4095C25.1391 32.8396 24.8782 32.7404 24.6762 32.5607C24.4741 32.3811 24.3451 32.1335 24.3134 31.865L24.3057 31.7359H23.2019C23.2019 32.0062 23.1026 32.2672 22.923 32.4692C22.7433 32.6712 22.4958 32.8003 22.2273 32.8319L22.0981 32.8397H18.7868C18.5164 32.8396 18.2555 32.7404 18.0535 32.5607C17.8514 32.3811 17.7223 32.1335 17.6907 31.865L17.683 31.7359V30.6078C16.8856 30.098 16.1968 29.4357 15.6562 28.6588C15.1156 27.882 14.7338 27.006 14.5328 26.0812C13.8819 25.8875 13.3063 25.4984 12.8838 24.9668C12.4613 24.4351 12.2124 23.7865 12.1707 23.1087L12.1641 22.9056V22.3537C12.1644 22.0724 12.2721 21.8018 12.4652 21.5972C12.6584 21.3926 12.9223 21.2695 13.2032 21.253C13.484 21.2365 13.7606 21.3279 13.9763 21.5085C14.192 21.689 14.3307 21.9452 14.3639 22.2245L14.3716 22.3537V22.9056C14.3716 23.0689 14.407 23.2246 14.471 23.3636C14.6395 22.3699 15.0153 21.4228 15.574 20.584C16.1328 19.7451 16.8619 19.0333 17.7139 18.4948C17.6356 17.8 17.7049 17.0964 17.9172 16.4302C18.1295 15.764 18.4802 15.1501 18.9461 14.6287C19.4121 14.1073 19.9828 13.6902 20.6211 13.4046C21.2594 13.119 21.9508 12.9715 22.65 12.9715ZM27.6171 21.8018C27.3243 21.8018 27.0436 21.9181 26.8366 22.1251C26.6296 22.3321 26.5133 22.6128 26.5133 22.9056C26.5133 23.1983 26.6296 23.4791 26.8366 23.6861C27.0436 23.8931 27.3243 24.0094 27.6171 24.0094C27.9098 24.0094 28.1906 23.8931 28.3976 23.6861C28.6046 23.4791 28.7208 23.1983 28.7208 22.9056C28.7208 22.6128 28.6046 22.3321 28.3976 22.1251C28.1906 21.9181 27.9098 21.8018 27.6171 21.8018ZM22.65 15.1791C21.9815 15.1791 21.3356 15.4218 20.8325 15.8621C20.3295 16.3025 20.0034 16.9105 19.9148 17.5732C20.4497 17.449 20.9971 17.3864 21.5462 17.3866H25.2737L25.351 17.3679C25.2201 16.7486 24.8803 16.1932 24.3885 15.7947C23.8968 15.3962 23.283 15.1788 22.65 15.1791Z" fill="white"/>
</g>
<defs>
<linearGradient id="paint0_linear_126_67" x1="45.5243" y1="25.1493" x2="0.199219" y2="25.1493" gradientUnits="userSpaceOnUse">
<stop stop-color="white" stop-opacity="0"/>
<stop offset="0.453125" stop-color="white"/>
<stop offset="1" stop-color="white" stop-opacity="0"/>
</linearGradient>
<linearGradient id="paint1_linear_126_67" x1="41.3886" y1="25.13" x2="4.49609" y2="25.13" gradientUnits="userSpaceOnUse">
<stop stop-color="white" stop-opacity="0"/>
<stop offset="0.453125" stop-color="white"/>
<stop offset="1" stop-color="white" stop-opacity="0"/>
</linearGradient>
<clipPath id="clip0_126_67">
<rect width="26.4909" height="26.4909" fill="white" transform="translate(9.95312 9.66016)"/>
</clipPath>
</defs>
</svg>
