<svg width="46" height="46" viewBox="0 0 46 46" fill="none" xmlns="http://www.w3.org/2000/svg">
<path d="M44.9118 23.062C44.9118 35.1296 35.1289 44.9123 23.061 44.9123C10.9931 44.9123 1.21014 35.1296 1.21014 23.062C1.21014 10.9945 10.9931 1.21173 23.061 1.21173C35.1289 1.21173 44.9118 10.9945 44.9118 23.062Z" stroke="#3C3C3C" stroke-width="1.62341"/>
<path d="M44.9118 23.062C44.9118 35.1296 35.1289 44.9123 23.061 44.9123C10.9931 44.9123 1.21014 35.1296 1.21014 23.062C1.21014 10.9945 10.9931 1.21173 23.061 1.21173C35.1289 1.21173 44.9118 10.9945 44.9118 23.062Z" stroke="url(#paint0_linear_126_79)" stroke-opacity="0.2" stroke-width="1.62341"/>
<ellipse cx="23.0595" cy="23.0621" rx="18.4463" ry="18.4458" fill="#3C3C3C"/>
<ellipse cx="23.0595" cy="23.0621" rx="18.4463" ry="18.4458" fill="url(#paint1_linear_126_79)" fill-opacity="0.1"/>
<g clip-path="url(#clip0_126_79)">
<path d="M16.793 15.5521C16.793 14.8882 17.0567 14.2514 17.5262 13.782C17.9957 13.3125 18.6324 13.0487 19.2964 13.0487H26.8067C27.4706 13.0487 28.1074 13.3125 28.5768 13.782C29.0463 14.2514 29.3101 14.8882 29.3101 15.5521V30.5723C29.3101 31.2362 29.0463 31.8729 28.5768 32.3424C28.1074 32.8119 27.4706 33.0756 26.8067 33.0756H19.2964C18.6324 33.0756 17.9957 32.8119 17.5262 32.3424C17.0567 31.8729 16.793 31.2362 16.793 30.5723V15.5521ZM24.3032 29.3206C24.3032 28.9886 24.1714 28.6702 23.9366 28.4355C23.7019 28.2008 23.3835 28.0689 23.0515 28.0689C22.7195 28.0689 22.4012 28.2008 22.1664 28.4355C21.9317 28.6702 21.7998 28.9886 21.7998 29.3206C21.7998 29.6525 21.9317 29.9709 22.1664 30.2057C22.4012 30.4404 22.7195 30.5723 23.0515 30.5723C23.3835 30.5723 23.7019 30.4404 23.9366 30.2057C24.1714 29.9709 24.3032 29.6525 24.3032 29.3206Z" fill="white"/>
</g>
<defs>
<linearGradient id="paint0_linear_126_79" x1="45.7235" y1="25.1493" x2="0.398438" y2="25.1493" gradientUnits="userSpaceOnUse">
<stop stop-color="white" stop-opacity="0"/>
<stop offset="0.453125" stop-color="white"/>
<stop offset="1" stop-color="white" stop-opacity="0"/>
</linearGradient>
<linearGradient id="paint1_linear_126_79" x1="41.5058" y1="24.761" x2="4.61328" y2="24.761" gradientUnits="userSpaceOnUse">
<stop stop-color="white" stop-opacity="0"/>
<stop offset="0.453125" stop-color="white"/>
<stop offset="1" stop-color="white" stop-opacity="0"/>
</linearGradient>
<clipPath id="clip0_126_79">
<rect width="20.0274" height="20.0269" fill="white" transform="translate(13.0352 13.0487)"/>
</clipPath>
</defs>
</svg>
